<svg width="42" height="42" viewBox="0 0 42 42" fill="none" xmlns="http://www.w3.org/2000/svg">
<path fill-rule="evenodd" clip-rule="evenodd" d="M36.3125 12.25C36.3125 12.9749 35.7249 13.5625 35 13.5625L7 13.5625C6.27513 13.5625 5.6875 12.9749 5.6875 12.25C5.6875 11.5251 6.27513 10.9375 7 10.9375L35 10.9375C35.7249 10.9375 36.3125 11.5251 36.3125 12.25Z" fill="#113D3C"/>
<path fill-rule="evenodd" clip-rule="evenodd" d="M36.3125 21C36.3125 21.7249 35.7249 22.3125 35 22.3125L7 22.3125C6.27513 22.3125 5.6875 21.7249 5.6875 21C5.6875 20.2751 6.27513 19.6875 7 19.6875L35 19.6875C35.7249 19.6875 36.3125 20.2751 36.3125 21Z" fill="#113D3C"/>
<path fill-rule="evenodd" clip-rule="evenodd" d="M36.3125 29.75C36.3125 30.4749 35.7249 31.0625 35 31.0625L7 31.0625C6.27513 31.0625 5.6875 30.4749 5.6875 29.75C5.6875 29.0251 6.27513 28.4375 7 28.4375L35 28.4375C35.7249 28.4375 36.3125 29.0251 36.3125 29.75Z" fill="#113D3C"/>
</svg>
