<svg width="185" height="50" viewBox="0 0 185 50" fill="none" xmlns="http://www.w3.org/2000/svg">
<path d="M17.2099 26.172C16.7689 25.4001 16.7689 24.4526 17.2099 23.6808L19.3619 19.9149C19.8089 19.1327 20.6407 18.6499 21.5417 18.6499H25.8009C26.7018 18.6499 27.5337 19.1327 27.9806 19.9149L30.1326 23.6808C30.5736 24.4526 30.5736 25.4001 30.1326 26.172L27.9806 29.9378C27.5337 30.7201 26.7018 31.2028 25.8009 31.2028L21.5417 31.2028C20.6407 31.2028 19.8089 30.7201 19.3619 29.9378L17.2099 26.172Z" fill="#113D3C"/>
<path d="M19.0085 5.37979C19.0085 2.4086 21.4172 -3.05176e-05 24.3884 -3.05176e-05H29.0509V8.60768C29.0509 11.5789 26.6422 13.9875 23.6711 13.9875H19.0085V5.37979Z" fill="#088B64"/>
<path d="M38.3899 10.9289C40.9662 9.44883 44.2546 10.3375 45.7347 12.9137L48.0573 16.9565L40.5937 21.2445C38.0174 22.7246 34.729 21.836 33.2489 19.2597L30.9263 15.2169L38.3899 10.9289Z" fill="#088B64"/>
<path d="M5.00269 8.24896L2.68004 12.2918C1.19993 14.8681 2.08856 18.1564 4.66484 19.6365L12.1285 23.9245L14.4511 19.8817C15.9312 17.3054 15.0426 14.017 12.4663 12.5369L5.00269 8.24896Z" fill="#088B64"/>
<path d="M43.3001 30.2391C45.876 31.7199 46.7637 35.0085 45.2828 37.5844L42.9591 41.6266L35.4966 37.3365C32.9207 35.8557 32.033 32.5671 33.5139 29.9912L35.8376 25.9491L43.3001 30.2391Z" fill="#088B64"/>
<path d="M29.0086 44.2684C29.0169 47.2396 26.6151 49.6549 23.6439 49.6633L18.9814 49.6763L18.9573 41.0687C18.9489 38.0975 21.3508 35.6821 24.322 35.6738L28.9845 35.6607L29.0086 44.2684Z" fill="#088B64"/>
<path d="M9.68468 38.8735C7.11264 40.361 3.82175 39.4818 2.33427 36.9097L6.55828e-05 32.8736L7.45141 28.5643C10.0234 27.0768 13.3143 27.956 14.8018 30.5281L17.136 34.5642L9.68468 38.8735Z" fill="#088B64"/>
<path fill-rule="evenodd" clip-rule="evenodd" d="M166.866 17.8529C166.704 17.864 166.546 17.8715 166.391 17.8761C166.391 17.7514 166.392 17.6232 166.396 17.4923C166.448 15.772 166.868 14.3443 167.558 13.5905C168.176 12.9154 169.41 12.4679 171.085 12.3527C171.197 12.345 171.308 12.339 171.417 12.3346C171.421 12.4819 171.422 12.6325 171.421 12.7856C171.407 14.5591 171.033 15.9154 170.393 16.6151C169.775 17.2902 168.541 17.7377 166.866 17.8529ZM166.465 21.1445C168.501 21.0876 171.156 20.6231 172.804 18.8224C175.309 16.0861 174.687 11.1385 174.432 9.65979C174.387 9.39942 174.181 9.20232 173.918 9.17068C172.457 8.99442 167.645 8.65396 165.146 11.3833C163.365 13.3299 163.138 15.4297 163.138 18.5355L163.138 33.9007C163.138 34.2618 163.431 34.5546 163.792 34.5546H165.811C166.172 34.5546 166.465 34.2618 166.465 33.9007V21.1445ZM71.8597 25.5525C71.8597 25.9136 72.1524 26.2063 72.5135 26.2063H78.6073C78.419 26.9386 78.1366 27.6291 77.7599 28.2777C77.3833 28.9263 76.9126 29.5017 76.3476 30.0038C75.7827 30.506 75.1132 30.893 74.339 31.165C73.5649 31.437 72.6861 31.573 71.7028 31.573C70.2591 31.573 68.9619 31.2383 67.8111 30.5687C66.6603 29.8992 65.7397 28.9681 65.0493 27.7755C64.3797 26.562 64.045 25.1602 64.045 23.57C64.045 21.959 64.3902 20.5676 65.0807 19.3959C65.7711 18.2033 66.6917 17.2827 67.8425 16.6341C68.9932 15.9645 70.28 15.6298 71.7028 15.6298C73.2301 15.6298 74.5274 15.9436 75.5944 16.5713C76.472 17.0776 77.1931 17.7201 77.7576 18.4986C77.9789 18.804 78.4018 18.9052 78.7156 18.696L80.6183 17.4276C80.9137 17.2306 80.9998 16.8325 80.7919 16.5447C80.2153 15.7463 79.5394 15.0542 78.7642 14.4686C77.8436 13.7363 76.7975 13.1818 75.6258 12.8052C74.4541 12.4077 73.1464 12.2089 71.7028 12.2089C70.0499 12.2089 68.512 12.4809 67.0893 13.0249C65.6874 13.5689 64.4634 14.3535 63.4173 15.3787C62.3921 16.383 61.5865 17.5861 61.0007 18.9879C60.4358 20.3688 60.1533 21.8962 60.1533 23.57C60.1533 25.2439 60.4358 26.7817 61.0007 28.1835C61.5656 29.5854 62.3607 30.7989 63.3859 31.8241C64.4321 32.8493 65.656 33.6444 67.0579 34.2093C68.4597 34.7533 69.9871 35.0253 71.64 35.0253C73.3766 35.0253 74.9249 34.7115 76.2849 34.0838C77.6658 33.4352 78.8165 32.5564 79.7372 31.4475C80.6578 30.3386 81.3482 29.0727 81.8085 27.65C82.2077 26.3979 82.4181 25.0829 82.4396 23.7049C82.4451 23.3505 82.1536 23.0679 81.7991 23.0679H72.5135C72.1524 23.0679 71.8597 23.3606 71.8597 23.7217V25.5525ZM88.2114 20.7716C88.2114 20.4105 87.9187 20.1177 87.5576 20.1177H85.5071C85.146 20.1177 84.8533 20.4105 84.8533 20.7716V33.9007C84.8533 34.2618 85.146 34.5546 85.5071 34.5546H87.5576C87.9187 34.5546 88.2114 34.2618 88.2114 33.9007V26.426C88.2114 25.7355 88.2846 25.1392 88.4311 24.6371C88.5985 24.114 88.86 23.706 89.2157 23.4131C89.5714 23.1202 90.0317 22.9737 90.5966 22.9737C91.0151 22.9737 91.3603 23.0365 91.6323 23.162C91.714 23.1998 91.7977 23.2431 91.8832 23.2922C92.2315 23.492 92.6911 23.4119 92.8903 23.0633L93.9241 21.2541C94.0564 21.0226 94.0405 20.7272 93.8424 20.5485C93.5916 20.3222 93.3047 20.1577 92.9818 20.055C92.5215 19.8876 92.0298 19.8039 91.5068 19.8039C90.7745 19.8039 90.0631 20.0654 89.3726 20.5885C88.9368 20.929 88.5497 21.3493 88.2114 21.8494V20.7716ZM105.488 33.8955C104.295 34.5441 102.862 34.8684 101.188 34.8684C99.7233 34.8684 98.426 34.5546 97.2962 33.9269C96.1873 33.2992 95.3294 32.4204 94.7227 31.2906C94.1159 30.1607 93.8125 28.8426 93.8125 27.3361C93.8125 25.8088 94.1159 24.4802 94.7227 23.3503C95.3504 22.2205 96.2291 21.3522 97.359 20.7454C98.4888 20.1177 99.8174 19.8039 101.345 19.8039C102.872 19.8039 104.169 20.0968 105.236 20.6827C106.304 21.2685 107.119 22.1159 107.684 23.2248C108.27 24.3128 108.563 25.6309 108.563 27.1792C108.563 27.3466 108.553 27.5245 108.532 27.7128C108.532 27.9537 108.331 28.1208 108.09 28.1208H97.2769C97.3433 28.7826 97.4857 29.3685 97.7042 29.8783C98.018 30.5897 98.4783 31.1337 99.0851 31.5103C99.7128 31.8869 100.466 32.0752 101.345 32.0752C102.265 32.0752 103.071 31.8869 103.761 31.5103C104.304 31.2142 104.776 30.7953 105.176 30.2535C105.369 29.9932 105.709 29.8747 106.009 29.9972L107.711 30.6927C108.078 30.8428 108.23 31.2847 108.003 31.6102C107.316 32.5954 106.477 33.3571 105.488 33.8955ZM97.3688 25.7983C97.4527 25.3465 97.5749 24.9385 97.7356 24.5743C98.0494 23.8629 98.5097 23.3189 99.1165 22.9423C99.7233 22.5657 100.456 22.3774 101.313 22.3774C102.025 22.3774 102.642 22.5343 103.165 22.8482C103.709 23.162 104.128 23.6014 104.42 24.1663C104.682 24.6375 104.835 25.1815 104.878 25.7983H97.3688ZM116.977 34.8684C118.651 34.8684 120.084 34.5441 121.277 33.8955C122.266 33.3571 123.105 32.5954 123.792 31.6102C124.019 31.2847 123.867 30.8428 123.5 30.6927L121.798 29.9972C121.498 29.8747 121.158 29.9932 120.965 30.2535C120.565 30.7953 120.093 31.2142 119.55 31.5103C118.86 31.8869 118.054 32.0752 117.134 32.0752C116.255 32.0752 115.502 31.8869 114.874 31.5103C114.267 31.1337 113.807 30.5897 113.493 29.8783C113.275 29.3685 113.132 28.7826 113.066 28.1208H123.879C124.12 28.1208 124.321 27.9537 124.321 27.7128C124.342 27.5245 124.352 27.3466 124.352 27.1792C124.352 25.6309 124.059 24.3128 123.473 23.2248C122.909 22.1159 122.093 21.2685 121.025 20.6827C119.958 20.0968 118.661 19.8039 117.134 19.8039C115.606 19.8039 114.278 20.1177 113.148 20.7454C112.018 21.3522 111.139 22.2205 110.512 23.3503C109.905 24.4802 109.602 25.8088 109.602 27.3361C109.602 28.8426 109.905 30.1607 110.512 31.2906C111.118 32.4204 111.976 33.2992 113.085 33.9269C114.215 34.5546 115.512 34.8684 116.977 34.8684ZM113.525 24.5743C113.364 24.9385 113.242 25.3465 113.158 25.7983H120.667C120.624 25.1815 120.471 24.6375 120.209 24.1663C119.917 23.6014 119.498 23.162 118.954 22.8482C118.431 22.5343 117.814 22.3774 117.102 22.3774C116.245 22.3774 115.512 22.5657 114.906 22.9423C114.299 23.3189 113.838 23.8629 113.525 24.5743ZM142.448 12.5855C142.087 12.5855 141.794 12.8782 141.794 13.2393V33.9007C141.794 34.2618 142.087 34.5546 142.448 34.5546H153.569C153.93 34.5546 154.222 34.2618 154.222 33.9007V31.8816C154.222 31.5205 153.93 31.2278 153.569 31.2278H145.498V13.2393C145.498 12.8782 145.205 12.5855 144.844 12.5855H142.448ZM156.025 15.8495C155.607 15.431 155.398 14.9393 155.398 14.3744C155.398 13.7886 155.607 13.2969 156.025 12.8993C156.465 12.5018 156.967 12.303 157.532 12.303C158.139 12.303 158.641 12.5018 159.038 12.8993C159.457 13.2969 159.666 13.7886 159.666 14.3744C159.666 14.9393 159.457 15.431 159.038 15.8495C158.641 16.247 158.139 16.4458 157.532 16.4458C156.967 16.4458 156.465 16.247 156.025 15.8495ZM159.195 33.9007C159.195 34.2618 158.902 34.5546 158.541 34.5546H156.522C156.161 34.5546 155.868 34.2618 155.868 33.9007V20.7716C155.868 20.4105 156.161 20.1177 156.522 20.1177H158.541C158.902 20.1177 159.195 20.4105 159.195 20.7716V33.9007ZM177.625 34.8684C179.299 34.8684 180.732 34.5441 181.924 33.8955C182.914 33.3571 183.753 32.5954 184.44 31.6102C184.667 31.2847 184.515 30.8428 184.148 30.6927L182.446 29.9972C182.146 29.8747 181.806 29.9932 181.613 30.2535C181.213 30.7953 180.741 31.2142 180.198 31.5103C179.508 31.8869 178.702 32.0752 177.782 32.0752C176.903 32.0752 176.15 31.8869 175.522 31.5103C174.915 31.1337 174.455 30.5897 174.141 29.8783C173.923 29.3685 173.78 28.7826 173.714 28.1208H184.527C184.768 28.1208 184.969 27.9537 184.969 27.7128C184.99 27.5245 185 27.3466 185 27.1792C185 25.6309 184.707 24.3128 184.121 23.2248C183.556 22.1159 182.74 21.2685 181.673 20.6827C180.606 20.0968 179.309 19.8039 177.782 19.8039C176.254 19.8039 174.926 20.1177 173.796 20.7454C172.666 21.3522 171.787 22.2205 171.159 23.3503C170.553 24.4802 170.249 25.8088 170.249 27.3361C170.249 28.8426 170.553 30.1607 171.159 31.2906C171.766 32.4204 172.624 33.2992 173.733 33.9269C174.863 34.5546 176.16 34.8684 177.625 34.8684ZM174.172 24.5743C174.012 24.9385 173.889 25.3465 173.806 25.7983H181.315C181.272 25.1815 181.119 24.6375 180.857 24.1663C180.564 23.6014 180.146 23.162 179.602 22.8482C179.079 22.5343 178.462 22.3774 177.75 22.3774C176.892 22.3774 176.16 22.5657 175.553 22.9423C174.947 23.3189 174.486 23.8629 174.172 24.5743Z" fill="#113D3C"/>
<path fill-rule="evenodd" clip-rule="evenodd" d="M132.73 20.1701C136.16 20.1701 138.941 22.3314 138.941 25.4008V34.2276C138.941 34.5887 138.648 34.8815 138.287 34.8815H136.326C135.965 34.8815 135.672 34.5887 135.672 34.2276V25.4008C135.672 24.4694 134.706 23.1124 132.73 23.1124C130.753 23.1124 129.787 24.4694 129.787 25.4008V34.2276C129.787 34.5887 129.495 34.8815 129.133 34.8815H127.172C126.811 34.8815 126.518 34.5909 126.518 34.2298C126.518 32.5214 126.518 27.8752 126.518 25.4008C126.518 23.2839 127.841 21.7703 129.787 20.8319C130.663 20.4097 131.665 20.1701 132.73 20.1701Z" fill="#113D3C"/>
<path d="M126.518 25.4008C126.518 23.2839 127.841 21.7703 129.787 20.8319V20.8239C129.787 20.4628 129.495 20.1701 129.133 20.1701H127.172C126.811 20.1701 126.518 20.4628 126.518 20.8239V25.4008Z" fill="#113D3C"/>
</svg>
