<svg width="24" height="24" viewBox="0 0 24 24" fill="none" xmlns="http://www.w3.org/2000/svg">
<path d="M4.40237 14.7866C4.86574 15.2797 5.75513 15.3948 6.44272 14.7044C6.68935 14.466 7.17515 13.8989 7.93748 13.0523C11.6744 8.89336 13.9763 6.27143 14.3874 6.68239C14.7162 7.01116 13.4457 8.992 12.1751 10.9317C9.85077 14.4742 7.89264 17.0633 9.36497 18.6825C10.5159 19.9482 12.2648 18.7975 15.0675 16.0934C16.5697 14.6386 17.6161 13.5619 17.8776 13.8413C18.0421 14.0222 17.646 14.7372 17.1377 15.6989C16.4202 17.0633 15.4636 18.6085 16.3978 19.6359C17.048 20.351 18.2887 20.0386 19.7311 18.4688C20.0301 18.1482 20.0974 17.7619 19.8433 17.4907C19.6116 17.2359 19.2827 17.277 19.0361 17.5236C18.1019 18.5099 17.4068 18.9373 17.2947 18.7975C17.1527 18.6496 17.5488 17.8688 18.2364 16.5208C19.1856 14.655 19.7685 13.4057 18.8941 12.4687C17.7207 11.2194 16.3455 12.5427 13.9614 14.8523C11.936 16.8085 11.1064 17.3181 10.9195 17.0962C10.6505 16.7838 11.3979 15.6742 13.6101 12.2715C16.0017 8.60569 17.4217 6.22211 16.0765 4.77553C14.3201 2.89332 11.9584 4.28237 6.1064 10.6523C5.25438 11.5728 4.72374 12.1317 4.46216 12.477C3.78204 13.34 3.93152 14.2934 4.40237 14.7866Z" fill="#088B64"/>
</svg>
